<svg xmlns="http://www.w3.org/2000/svg" viewBox="0 0 200 200" width="200" height="200">
  <defs>
    <linearGradient id="schoolGradient" x1="0%" y1="0%" x2="100%" y2="100%">
      <stop offset="0%" style="stop-color:#1976d2;stop-opacity:1" />
      <stop offset="50%" style="stop-color:#43a047;stop-opacity:1" />
      <stop offset="100%" style="stop-color:#ffa000;stop-opacity:1" />
    </linearGradient>
    <linearGradient id="bookGradient" x1="0%" y1="0%" x2="100%" y2="100%">
      <stop offset="0%" style="stop-color:#ffffff;stop-opacity:1" />
      <stop offset="100%" style="stop-color:#f5f5f5;stop-opacity:1" />
    </linearGradient>
  </defs>
  
  <!-- Main circle background -->
  <circle cx="100" cy="100" r="95" fill="url(#schoolGradient)" stroke="#ffffff" stroke-width="4"/>
  
  <!-- School building base -->
  <rect x="60" y="120" width="80" height="50" fill="#2c5aa0" rx="2"/>
  
  <!-- School building main -->
  <rect x="50" y="90" width="100" height="40" fill="#3f72af" rx="3"/>
  
  <!-- School roof -->
  <polygon points="45,90 100,65 155,90" fill="#1e3a5f"/>
  
  <!-- Door -->
  <rect x="90" y="110" width="20" height="30" fill="#8b4513" rx="2"/>
  <circle cx="105" cy="125" r="2" fill="#ffd700"/>
  
  <!-- Windows -->
  <rect x="65" y="100" width="15" height="12" fill="#87ceeb" rx="1"/>
  <rect x="120" y="100" width="15" height="12" fill="#87ceeb" rx="1"/>
  <line x1="72.5" y1="100" x2="72.5" y2="112" stroke="#ffffff" stroke-width="1"/>
  <line x1="65" y1="106" x2="80" y2="106" stroke="#ffffff" stroke-width="1"/>
  <line x1="127.5" y1="100" x2="127.5" y2="112" stroke="#ffffff" stroke-width="1"/>
  <line x1="120" y1="106" x2="135" y2="106" stroke="#ffffff" stroke-width="1"/>
  
  <!-- Flag pole -->
  <line x1="155" y1="65" x2="155" y2="45" stroke="#8b4513" stroke-width="3"/>
  <rect x="155" y="45" width="20" height="12" fill="#ff6b6b"/>
  
  <!-- Open book -->
  <ellipse cx="100" cy="45" rx="25" ry="8" fill="url(#bookGradient)" stroke="#ddd" stroke-width="1"/>
  <path d="M 75 45 Q 100 35 125 45 Q 100 55 75 45" fill="#f8f9fa" stroke="#ddd" stroke-width="1"/>
  <line x1="100" y1="35" x2="100" y2="55" stroke="#ddd" stroke-width="1"/>
  
  <!-- Book text lines -->
  <line x1="85" y1="40" x2="95" y2="40" stroke="#666" stroke-width="1"/>
  <line x1="85" y1="44" x2="95" y2="44" stroke="#666" stroke-width="1"/>
  <line x1="85" y1="48" x2="95" y2="48" stroke="#666" stroke-width="1"/>
  <line x1="105" y1="40" x2="115" y2="40" stroke="#666" stroke-width="1"/>
  <line x1="105" y1="44" x2="115" y2="44" stroke="#666" stroke-width="1"/>
  <line x1="105" y1="48" x2="115" y2="48" stroke="#666" stroke-width="1"/>
  
  <!-- Graduation cap -->
  <ellipse cx="100" cy="25" rx="18" ry="6" fill="#1a237e"/>
  <rect x="82" y="22" width="36" height="6" fill="#1a237e"/>
  <polygon points="118,25 125,20 125,35" fill="#ffd700"/>
  
  <!-- Stars around -->
  <polygon points="30,40 32,46 38,46 33,50 35,56 30,52 25,56 27,50 22,46 28,46" fill="#ffd700" opacity="0.8"/>
  <polygon points="170,40 172,46 178,46 173,50 175,56 170,52 165,56 167,50 162,46 168,46" fill="#ffd700" opacity="0.8"/>
  <polygon points="40,150 42,156 48,156 43,160 45,166 40,162 35,166 37,160 32,156 38,156" fill="#ffd700" opacity="0.8"/>
  <polygon points="160,150 162,156 168,156 163,160 165,166 160,162 155,166 157,160 152,156 158,156" fill="#ffd700" opacity="0.8"/>
</svg>