<?xml version="1.0" encoding="UTF-8"?>
<svg xmlns="http://www.w3.org/2000/svg" viewBox="0 0 200 240" width="200" height="240">
  <defs>
    <linearGradient id="blueGradient" x1="0%" y1="0%" x2="100%" y2="100%">
      <stop offset="0%" style="stop-color:#0066CC;stop-opacity:1" />
      <stop offset="100%" style="stop-color:#0099FF;stop-opacity:1" />
    </linearGradient>
    <linearGradient id="greenGradient" x1="0%" y1="0%" x2="100%" y2="100%">
      <stop offset="0%" style="stop-color:#009900;stop-opacity:1" />
      <stop offset="100%" style="stop-color:#00CC00;stop-opacity:1" />
    </linearGradient>
    <linearGradient id="goldGradient" x1="0%" y1="0%" x2="100%" y2="100%">
      <stop offset="0%" style="stop-color:#FFD700;stop-opacity:1" />
      <stop offset="100%" style="stop-color:#FFA500;stop-opacity:1" />
    </linearGradient>
  </defs>
  
  <!-- Main shield background -->
  <path d="M100 10 L180 50 L180 160 Q180 200 100 230 Q20 200 20 160 L20 50 Z" 
        fill="url(#blueGradient)" stroke="#003366" stroke-width="2"/>
  
  <!-- Central bird (Humo) -->
  <g transform="translate(100,80)">
    <!-- Bird body -->
    <ellipse cx="0" cy="0" rx="25" ry="35" fill="url(#goldGradient)" stroke="#CC6600" stroke-width="1"/>
    
    <!-- Wings -->
    <path d="M-25 -10 Q-40 -20 -35 -35 Q-30 -40 -20 -25 Z" fill="url(#goldGradient)" stroke="#CC6600" stroke-width="1"/>
    <path d="M25 -10 Q40 -20 35 -35 Q30 -40 20 -25 Z" fill="url(#goldGradient)" stroke="#CC6600" stroke-width="1"/>
    
    <!-- Head -->
    <circle cx="0" cy="-25" r="12" fill="url(#goldGradient)" stroke="#CC6600" stroke-width="1"/>
    
    <!-- Beak -->
    <path d="M0 -35 L-8 -40 L0 -30 Z" fill="#FF6600"/>
    
    <!-- Eye -->
    <circle cx="-3" cy="-27" r="2" fill="#000"/>
    
    <!-- Tail feathers -->
    <path d="M0 25 Q-15 40 -10 55 Q0 50 5 35 Q10 50 20 55 Q15 40 0 25 Z" 
          fill="url(#goldGradient)" stroke="#CC6600" stroke-width="1"/>
  </g>
  
  <!-- Sun rays at top -->
  <g transform="translate(100,40)">
    <circle cx="0" cy="0" r="20" fill="url(#goldGradient)" stroke="#FF6600" stroke-width="1"/>
    <!-- Sun rays -->
    <g stroke="#FFD700" stroke-width="2">
      <line x1="0" y1="-25" x2="0" y2="-35"/>
      <line x1="18" y1="-13" x2="25" y2="-18"/>
      <line x1="18" y1="13" x2="25" y2="18"/>
      <line x1="0" y1="25" x2="0" y2="35"/>
      <line x1="-18" y1="13" x2="-25" y2="18"/>
      <line x1="-18" y1="-13" x2="-25" y2="-18"/>
      <line x1="13" y1="-18" x2="18" y2="-25"/>
      <line x1="-13" y1="-18" x2="-18" y2="-25"/>
    </g>
  </g>
  
  <!-- Rivers at bottom -->
  <g transform="translate(100,180)">
    <path d="M-60 0 Q-40 -10 -20 0 Q0 10 20 0 Q40 -10 60 0" 
          stroke="url(#blueGradient)" stroke-width="4" fill="none"/>
    <path d="M-50 10 Q-30 0 -10 10 Q10 20 30 10 Q50 0 70 10" 
          stroke="url(#blueGradient)" stroke-width="3" fill="none"/>
  </g>
  
  <!-- Cotton branches on sides -->
  <g transform="translate(40,120)">
    <path d="M0 0 Q-10 -20 -5 -40" stroke="url(#greenGradient)" stroke-width="3" fill="none"/>
    <circle cx="-8" cy="-35" r="4" fill="white"/>
    <circle cx="-12" cy="-25" r="3" fill="white"/>
    <circle cx="-6" cy="-15" r="3" fill="white"/>
  </g>
  
  <g transform="translate(160,120)">
    <path d="M0 0 Q10 -20 5 -40" stroke="url(#greenGradient)" stroke-width="3" fill="none"/>
    <circle cx="8" cy="-35" r="4" fill="white"/>
    <circle cx="12" cy="-25" r="3" fill="white"/>
    <circle cx="6" cy="-15" r="3" fill="white"/>
  </g>
  
  <!-- Wheat ears -->
  <g transform="translate(60,140)">
    <path d="M0 0 L-5 -30" stroke="#DAA520" stroke-width="2"/>
    <g stroke="#DAA520" stroke-width="1">
      <line x1="-5" y1="-25" x2="-10" y2="-23"/>
      <line x1="-5" y1="-20" x2="-10" y2="-18"/>
      <line x1="-5" y1="-15" x2="-10" y2="-13"/>
      <line x1="-5" y1="-25" x2="0" y2="-23"/>
      <line x1="-5" y1="-20" x2="0" y2="-18"/>
      <line x1="-5" y1="-15" x2="0" y2="-13"/>
    </g>
  </g>
  
  <g transform="translate(140,140)">
    <path d="M0 0 L5 -30" stroke="#DAA520" stroke-width="2"/>
    <g stroke="#DAA520" stroke-width="1">
      <line x1="5" y1="-25" x2="10" y2="-23"/>
      <line x1="5" y1="-20" x2="10" y2="-18"/>
      <line x1="5" y1="-15" x2="10" y2="-13"/>
      <line x1="5" y1="-25" x2="0" y2="-23"/>
      <line x1="5" y1="-20" x2="0" y2="-18"/>
      <line x1="5" y1="-15" x2="0" y2="-13"/>
    </g>
  </g>
  
  <!-- Star and crescent at bottom -->
  <g transform="translate(100,200)">
    <!-- Crescent -->
    <path d="M-10 0 Q-20 -10 -10 -20 Q0 -15 -10 0 Z" fill="url(#goldGradient)" stroke="#CC6600" stroke-width="1"/>
    <!-- Star -->
    <g transform="translate(10,0)">
      <path d="M0 -8 L2 -2 L8 -2 L3 2 L5 8 L0 4 L-5 8 L-3 2 L-8 -2 L-2 -2 Z" 
            fill="url(#goldGradient)" stroke="#CC6600" stroke-width="1"/>
    </g>
  </g>
</svg>